<svg width="16" height="16" viewBox="0 0 16 16" fill="none" xmlns="http://www.w3.org/2000/svg">
<g clip-path="url(#clip0_4855_19075)">
<path d="M2 1.66667C2 0.746 2.746 0 3.66667 0C4.58733 0 5.33333 0.746 5.33333 1.66667C5.33333 2.58733 4.58733 3.33333 3.66667 3.33333C2.746 3.33333 2 2.58733 2 1.66667ZM4.33333 4H3C1.346 4 0 5.346 0 7V9C0 10.038 0.53 10.9547 1.33333 11.4933V15C1.33333 15.552 1.78067 16 2.33333 16C2.886 16 3.33333 15.552 3.33333 15V11.9427C3.722 11.8053 4 11.4353 4 11C4 10.448 3.55267 10 3 10C2.44733 10 2 9.55133 2 9V7C2 6.44867 2.44867 6 3 6H4.33333C4.886 6 5.33333 5.552 5.33333 5C5.33333 4.448 4.886 4 4.33333 4ZM12.3287 3.33333C13.2493 3.33333 13.9953 2.58733 13.9953 1.66667C13.9953 0.746 13.2493 0 12.3287 0C11.408 0 10.662 0.746 10.662 1.66667C10.662 2.58733 11.408 3.33333 12.3287 3.33333ZM15.9567 10.6847L15.4127 6.69133C15.2033 5.15667 13.8773 4 12.3293 4C12.164 4 12.0013 4.01333 11.8427 4.038C11.2967 4.12267 10.9233 4.634 11.008 5.18C11.0933 5.72533 11.6067 6.09867 12.1493 6.01467C12.7427 5.924 13.3487 6.35333 13.4313 6.962L13.9753 10.9553C13.9933 11.0853 13.934 11.1767 13.896 11.2193C13.8587 11.2613 13.7767 11.3333 13.6453 11.3333H12.996C12.4433 11.3333 11.996 11.7813 11.996 12.3333C11.996 12.7687 12.274 13.1387 12.6627 13.276V15C12.6627 15.552 13.11 16 13.6627 16C14.2153 16 14.6627 15.552 14.6627 15V13.1C14.942 12.9647 15.1947 12.774 15.4033 12.5347C15.8467 12.0267 16.0487 11.3527 15.9573 10.6853L15.9567 10.6847Z" fill="url(#paint0_linear_4855_19075)"/>
<path d="M9.66683 4.99992C9.66683 5.92059 8.92083 6.66659 8.00016 6.66659C7.0795 6.66659 6.3335 5.92059 6.3335 4.99992C6.3335 4.07925 7.0795 3.33325 8.00016 3.33325C8.92083 3.33325 9.66683 4.07925 9.66683 4.99992Z" fill="#DFDFDF"/>
<path d="M10.6668 10.9999V9.66659C10.6668 8.37992 9.62016 7.33325 8.3335 7.33325H7.66683C6.38016 7.33325 5.3335 8.37992 5.3335 9.66659V10.9999C5.3335 11.4386 5.4555 11.8499 5.66683 12.2006V14.9999C5.66683 15.5519 6.11416 15.9999 6.66683 15.9999C7.2195 15.9999 7.66683 15.5519 7.66683 14.9999V13.3333H8.3335V14.9999C8.3335 15.5519 8.78083 15.9999 9.3335 15.9999C9.88616 15.9999 10.3335 15.5519 10.3335 14.9999V12.2006C10.5448 11.8493 10.6668 11.4386 10.6668 10.9999Z" fill="#DFDFDF"/>
</g>
<defs>
<linearGradient id="paint0_linear_4855_19075" x1="13.9628" y1="6.35514" x2="0.6699" y2="9.71128" gradientUnits="userSpaceOnUse">
<stop stop-color="#7775FF"/>
<stop offset="1" stop-color="#8CD5FF"/>
</linearGradient>
<clipPath id="clip0_4855_19075">
<rect width="16" height="16" fill="white"/>
</clipPath>
</defs>
</svg>
