<svg width="16" height="16" viewBox="0 0 16 16" fill="none" xmlns="http://www.w3.org/2000/svg">
<g clip-path="url(#clip0_6042_8904)">
<path d="M2 1.66667C2 0.746 2.746 0 3.66667 0C4.58733 0 5.33333 0.746 5.33333 1.66667C5.33333 2.58733 4.58733 3.33333 3.66667 3.33333C2.746 3.33333 2 2.58733 2 1.66667ZM4.33333 4H3C1.346 4 0 5.346 0 7V9C0 10.038 0.53 10.9547 1.33333 11.4933V15C1.33333 15.552 1.78067 16 2.33333 16C2.886 16 3.33333 15.552 3.33333 15V11.9427C3.722 11.8053 4 11.4353 4 11C4 10.448 3.55267 10 3 10C2.44733 10 2 9.55133 2 9V7C2 6.44867 2.44867 6 3 6H4.33333C4.886 6 5.33333 5.552 5.33333 5C5.33333 4.448 4.886 4 4.33333 4ZM12.3287 3.33333C13.2493 3.33333 13.9953 2.58733 13.9953 1.66667C13.9953 0.746 13.2493 0 12.3287 0C11.408 0 10.662 0.746 10.662 1.66667C10.662 2.58733 11.408 3.33333 12.3287 3.33333ZM15.9567 10.6847L15.4127 6.69133C15.2033 5.15667 13.8773 4 12.3293 4C12.164 4 12.0013 4.01333 11.8427 4.038C11.2967 4.12267 10.9233 4.634 11.008 5.18C11.0933 5.72533 11.6067 6.09867 12.1493 6.01467C12.7427 5.924 13.3487 6.35333 13.4313 6.962L13.9753 10.9553C13.9933 11.0853 13.934 11.1767 13.896 11.2193C13.8587 11.2613 13.7767 11.3333 13.6453 11.3333H12.996C12.4433 11.3333 11.996 11.7813 11.996 12.3333C11.996 12.7687 12.274 13.1387 12.6627 13.276V15C12.6627 15.552 13.11 16 13.6627 16C14.2153 16 14.6627 15.552 14.6627 15V13.1C14.942 12.9647 15.1947 12.774 15.4033 12.5347C15.8467 12.0267 16.0487 11.3527 15.9573 10.6853L15.9567 10.6847Z" fill="url(#paint0_linear_6042_8904)"/>
<path d="M9.66659 4.99967C9.66659 5.92034 8.92059 6.66634 7.99992 6.66634C7.07925 6.66634 6.33325 5.92034 6.33325 4.99967C6.33325 4.07901 7.07925 3.33301 7.99992 3.33301C8.92059 3.33301 9.66659 4.07901 9.66659 4.99967Z" fill="#777777"/>
<path d="M10.6666 10.9997V9.66634C10.6666 8.37967 9.61992 7.33301 8.33325 7.33301H7.66659C6.37992 7.33301 5.33325 8.37967 5.33325 9.66634V10.9997C5.33325 11.4383 5.45525 11.8497 5.66659 12.2003V14.9997C5.66659 15.5517 6.11392 15.9997 6.66659 15.9997C7.21925 15.9997 7.66659 15.5517 7.66659 14.9997V13.333H8.33325V14.9997C8.33325 15.5517 8.78059 15.9997 9.33325 15.9997C9.88592 15.9997 10.3333 15.5517 10.3333 14.9997V12.2003C10.5446 11.849 10.6666 11.4383 10.6666 10.9997Z" fill="#777777"/>
</g>
<defs>
<linearGradient id="paint0_linear_6042_8904" x1="13.9628" y1="6.35514" x2="0.6699" y2="9.71128" gradientUnits="userSpaceOnUse">
<stop stop-color="#7775FF"/>
<stop offset="1" stop-color="#8CD5FF"/>
</linearGradient>
<clipPath id="clip0_6042_8904">
<rect width="16" height="16" fill="white"/>
</clipPath>
</defs>
</svg>
